<?xml version="1.0" standalone="no"?>
<!DOCTYPE svg PUBLIC "-//W3C//DTD SVG 20010904//EN"
 "http://www.w3.org/TR/2001/REC-SVG-20010904/DTD/svg10.dtd">
<svg version="1.0" xmlns="http://www.w3.org/2000/svg"
 width="500.000000pt" height="500.000000pt" viewBox="0 0 500.000000 500.000000"
 preserveAspectRatio="xMidYMid meet">
<metadata>
Created by potrace 1.14, written by Peter Selinger 2001-2017
</metadata>
<g transform="translate(0.000000,500.000000) scale(0.100000,-0.100000)"
fill="#000000" stroke="none">
<path d="M0 3750 l0 -1250 775 0 775 0 0 730 0 730 950 0 950 0 0 -730 0 -730
775 0 775 0 0 1250 0 1250 -2500 0 -2500 0 0 -1250z"/>
<path d="M2501 3639 c-14 -39 -14 -64 0 -29 8 20 12 22 20 10 7 -11 8 -6 3 15
-9 41 -10 41 -23 4z"/>
<path d="M1970 3594 c0 -21 -4 -33 -10 -29 -5 3 -10 -3 -10 -14 0 -12 -4 -21
-10 -21 -5 0 -10 -9 -10 -21 0 -13 -4 -18 -12 -13 -8 5 -9 -2 -5 -26 6 -28 5
-31 -8 -20 -12 10 -13 7 -5 -19 5 -17 8 -31 7 -31 -1 0 -24 11 -51 25 -27 14
-57 25 -65 25 -31 0 -80 -40 -113 -92 -52 -80 -53 -85 -24 -58 l27 25 -11 -30
c-11 -29 -11 -29 9 -11 20 18 20 18 2 -30 -35 -92 -35 -103 -4 -59 l28 40 5
-35 5 -34 14 29 c10 21 15 25 18 14 2 -9 -12 -39 -31 -68 -20 -29 -40 -69 -47
-89 -14 -46 -23 -246 -10 -217 8 16 10 13 11 -20 l2 -40 13 40 12 40 8 -65 c4
-36 13 -78 20 -95 13 -28 13 -25 15 50 1 77 1 79 16 53 8 -16 16 -28 19 -28 2
0 1 26 -2 57 -6 55 -5 57 11 40 10 -9 19 -17 20 -17 1 0 1 25 -2 56 -3 41 -2
55 7 50 6 -4 11 -33 11 -67 0 -52 42 -233 57 -249 5 -5 -1 34 -13 85 -4 16 -2
15 11 -5 l16 -25 -6 30 -5 30 31 -35 30 -35 -7 -330 c-6 -285 -9 -331 -23
-345 -9 -8 -12 -12 -7 -7 25 18 25 4 0 -29 -50 -64 -43 -193 13 -248 22 -23
34 -27 72 -25 36 3 45 0 47 -15 1 -10 -7 -21 -19 -26 -13 -5 -16 -9 -7 -9 23
-1 43 15 36 28 -10 15 -1 14 34 -4 15 -8 75 -20 132 -27 l103 -13 -3 -31 c-4
-37 19 -65 51 -63 22 2 22 2 0 6 -22 4 -23 9 -23 93 0 123 31 152 96 89 l31
-30 5 25 c3 16 1 26 -7 26 -6 0 -24 13 -40 30 -28 29 -53 41 -39 18 4 -7 3 -8
-4 -4 -7 4 -22 -4 -35 -20 -18 -20 -28 -25 -45 -20 -33 11 -69 54 -94 113 -12
29 -25 50 -29 48 -4 -3 -5 3 -3 13 7 25 -59 98 -101 112 -41 14 -42 17 -50
270 -3 96 -8 218 -10 270 l-6 95 36 40 36 40 -6 -30 -6 -30 16 25 c13 20 15
21 11 5 -2 -11 -7 -36 -10 -55 -5 -28 -4 -31 4 -15 8 15 9 3 5 -45 -29 -348
-10 -497 78 -588 18 -19 64 -50 102 -69 90 -46 176 -104 207 -141 l24 -29 48
43 c27 23 91 66 143 95 127 73 157 99 192 172 52 106 62 211 39 420 -9 85 -9
110 1 120 10 10 11 4 7 -28 l-6 -40 11 35 c32 104 41 24 37 -315 -3 -251 -4
-260 -23 -263 -17 -3 -18 -1 -5 8 13 9 12 10 -5 7 -11 -2 -19 -8 -18 -15 2 -6
-4 -9 -11 -6 -19 7 -79 -74 -73 -98 3 -10 1 -16 -3 -13 -12 7 -23 -32 -14 -47
4 -7 4 -10 -1 -6 -4 4 -21 -14 -39 -39 -18 -28 -43 -51 -60 -56 -26 -9 -32 -6
-55 22 -25 30 -50 44 -35 19 4 -7 3 -8 -5 -4 -7 5 -22 -3 -37 -19 -23 -25 -26
-26 -43 -11 -26 24 -39 3 -39 -64 1 -59 -16 -78 -32 -35 -9 24 -13 25 -47 19
-21 -4 -45 -10 -53 -15 -9 -5 -1 -6 20 -2 32 6 34 5 21 -10 -7 -9 -22 -17 -32
-17 -11 0 -19 -7 -19 -15 0 -24 17 -18 60 21 43 39 55 28 18 -15 l-23 -26 26
22 c18 17 28 20 36 12 12 -12 41 -1 63 26 12 14 17 12 51 -21 21 -21 41 -36
43 -33 10 9 18 62 9 56 -5 -3 -15 -2 -23 4 -12 7 -10 9 8 9 13 0 22 6 22 15 0
25 -30 30 -62 11 -40 -24 -43 -16 -7 22 31 33 60 41 76 20 12 -15 25 -161 17
-183 -8 -20 -33 -19 -58 3 -21 17 -21 17 -2 -5 21 -25 58 -30 74 -10 6 6 12
28 14 47 l3 35 95 12 c52 6 108 16 124 22 18 8 33 8 40 2 8 -7 16 -4 24 10 9
13 23 19 52 19 32 0 43 6 64 33 36 47 51 116 37 171 -14 55 -14 59 -1 51 18
-11 10 4 -19 38 l-30 33 -10 295 c-6 162 -10 308 -10 324 l1 30 8 -30 c6 -24
8 -26 9 -7 2 32 21 27 22 -5 2 -24 2 -25 6 -5 5 27 23 19 24 -11 0 -21 1 -21
9 -2 8 19 8 19 18 -5 l11 -25 1 30 1 30 15 -30 14 -30 -5 28 c-3 15 -3 27 -1
27 3 0 12 -12 21 -27 15 -27 15 -27 9 -3 -4 14 -9 31 -11 38 -11 27 7 10 31
-30 30 -49 33 -47 10 7 -8 20 -13 40 -10 43 3 3 6 1 6 -4 0 -5 10 -20 21 -34
16 -21 16 -16 -5 27 -33 66 -32 72 1 42 l27 -24 -18 28 c-19 31 -17 47 4 22
23 -28 32 -15 10 15 -22 30 -16 41 10 18 8 -7 1 5 -15 26 -20 28 -24 38 -12
33 47 -19 49 -17 13 14 -39 33 -39 34 -15 39 l24 6 -30 19 c-16 11 -43 29 -58
42 -24 19 -25 23 -10 24 10 1 22 1 27 0 77 -15 73 -16 54 6 -25 28 -22 33 15
26 l32 -6 -25 21 -25 21 40 1 40 2 -29 12 -29 13 29 10 29 10 -30 8 -30 8 40
13 40 12 -35 1 c-41 1 -32 14 25 36 l40 15 -50 -6 c-52 -5 -52 -4 2 34 16 11
13 12 -17 7 l-35 -6 33 22 c41 27 36 34 -11 14 -52 -21 -55 -19 -21 17 l29 32
-27 -17 c-40 -25 -42 -21 -11 20 l28 38 -29 -23 c-32 -25 -46 -22 -25 5 13 17
13 17 -13 0 -31 -19 -34 -16 -17 16 9 18 5 16 -21 -8 l-33 -30 7 28 c9 38 2
34 -28 -18 -27 -45 -41 -59 -29 -28 4 10 2 14 -5 9 -15 -9 -8 41 13 90 l15 37
-21 -19 -22 -19 7 38 c4 21 9 46 12 55 2 9 -2 4 -10 -13 l-15 -30 -1 35 c0 26
-3 31 -10 20 -7 -12 -10 -8 -11 15 0 26 -2 27 -9 10 -7 -16 -9 -12 -10 20 l-2
40 -8 -33 c-13 -55 -20 -49 -22 19 l-1 64 -7 -50 c-6 -45 -7 -47 -10 -15 -2
28 -4 30 -7 10 -8 -49 -16 -56 -23 -20 l-7 35 -3 -40 c-2 -35 -3 -37 -10 -15
-7 22 -8 20 -9 -15 l-2 -40 -14 30 -14 30 5 -35 5 -35 -15 25 -16 25 6 -30 c3
-16 8 -39 11 -50 4 -17 1 -17 -16 5 l-21 25 11 -33 c13 -37 7 -51 -15 -33 -11
9 -10 0 5 -39 29 -77 8 -96 -37 -32 -24 34 -26 35 -20 10 4 -16 4 -28 1 -28
-3 0 -17 12 -31 28 -20 22 -23 23 -15 5 16 -33 14 -35 -16 -16 -27 17 -27 17
-14 0 21 -27 7 -30 -25 -5 -18 14 -24 16 -15 5 13 -16 1 -17 -201 -17 l-214 0
-24 43 c-32 58 -78 105 -111 112 -24 5 -71 -10 -130 -42 -4 -2 -4 8 -1 23 3
18 1 25 -6 20 -8 -5 -10 2 -5 25 4 23 3 30 -5 25 -8 -5 -12 0 -12 13 0 12 -4
21 -10 21 -5 0 -10 8 -10 17 0 24 -23 83 -32 83 -4 0 -8 -16 -8 -36z m336
-301 c-4 -4 -11 -1 -16 7 -16 25 -11 35 7 17 9 -9 13 -20 9 -24z m-466 -43 c0
-20 -5 -30 -15 -30 -18 0 -19 14 -5 41 15 27 20 24 20 -11z m932 9 c84 -6 154
-12 156 -14 2 -1 -4 -38 -13 -81 -9 -44 -19 -110 -22 -148 l-6 -68 -46 6
c-161 21 -607 15 -692 -10 -13 -4 -18 12 -28 93 -6 54 -18 123 -26 153 -8 30
-12 56 -10 58 20 20 463 27 687 11z m-975 -41 c-3 -7 -5 -2 -5 12 0 14 2 19 5
13 2 -7 2 -19 0 -25z m36 -207 c2 -10 1 -25 -4 -32 -6 -10 -9 -4 -9 19 0 36 5
42 13 13z m117 -60 c0 -5 12 -12 26 -15 17 -5 24 -12 22 -24 -5 -24 -31 -21
-43 6 -5 12 -13 22 -17 22 -5 0 -8 5 -8 10 0 6 5 10 10 10 6 0 10 -4 10 -9z
m80 0 c0 -12 -20 -25 -27 -18 -7 7 6 27 18 27 5 0 9 -4 9 -9z m689 -16 c73 -4
139 -9 147 -12 11 -4 14 -28 14 -102 0 -54 9 -169 20 -257 11 -87 20 -162 20
-165 0 -3 -42 0 -92 7 -51 7 -123 13 -160 14 -60 0 -68 2 -68 19 0 10 -9 30
-21 45 -22 29 -18 46 12 46 26 0 24 13 -10 49 -51 54 -65 107 -58 221 3 55 2
100 -3 100 -11 0 -71 -68 -97 -111 -39 -62 -56 -153 -49 -253 3 -49 11 -95 17
-102 9 -11 3 -14 -32 -14 -24 -1 -91 -7 -149 -14 -58 -8 -107 -12 -109 -10 -2
2 6 95 17 206 12 112 22 229 22 260 l0 57 56 7 c86 10 294 21 344 18 25 -2
105 -6 179 -9z m-686 -31 c-10 -15 -19 -22 -21 -15 -2 7 4 19 14 26 26 20 27
19 7 -11z m-80 -4 c12 -11 27 -18 34 -16 14 6 16 -4 7 -28 -10 -26 -28 -18
-51 24 -24 45 -22 49 10 20z m558 -112 c-4 -93 9 -144 51 -205 l29 -43 -25 0
c-14 0 -28 -4 -31 -10 -3 -5 -1 -10 6 -10 7 0 9 -3 6 -6 -4 -4 5 -20 18 -36
14 -16 25 -36 25 -44 0 -16 -26 -19 -35 -4 -3 6 0 10 7 10 9 0 10 3 2 8 -6 4
-14 17 -18 30 -4 12 -14 22 -21 22 -9 0 -12 6 -8 16 6 15 4 15 -19 0 -13 -9
-27 -13 -30 -10 -4 3 -14 -6 -24 -21 -21 -32 -29 -25 -43 43 -24 116 -5 210
59 291 22 28 44 51 48 51 4 0 5 -37 3 -82z m-494 40 c-3 -7 -5 -2 -5 12 0 14
2 19 5 13 2 -7 2 -19 0 -25z m-77 -28 c0 -5 -2 -10 -4 -10 -3 0 -8 5 -11 10
-3 6 -1 10 4 10 6 0 11 -4 11 -10z m48 -7 c-5 -25 -28 -28 -28 -4 0 12 6 21
16 21 9 0 14 -7 12 -17z m41 0 c-7 -10 -15 -20 -16 -22 -2 -2 -3 5 -3 17 0 14
6 22 16 22 14 0 15 -3 3 -17z m1007 -91 c-15 -15 -16 -15 -16 1 0 9 5 17 10
17 6 0 11 12 11 28 l2 27 4 -29 c3 -18 -1 -35 -11 -44z m-1096 36 c0 -19 -2
-20 -10 -8 -13 19 -13 30 0 30 6 0 10 -10 10 -22z m100 15 c-1 -5 -7 -19 -15
-33 l-14 -25 -1 26 c0 14 3 29 7 32 9 9 23 9 23 0z m-47 -32 c3 -12 -1 -22
-10 -25 -26 -10 -33 -6 -33 19 0 31 35 35 43 6z m1064 -43 c-3 -8 -6 -5 -6 6
-1 11 2 17 5 13 3 -3 4 -12 1 -19z m-1066 -7 c-9 -6 -10 -11 -2 -15 19 -12 12
-26 -14 -26 -14 0 -25 5 -25 11 0 13 30 38 45 39 6 0 4 -4 -4 -9z m1046 -23
c-3 -7 -5 -2 -5 12 0 14 2 19 5 13 2 -7 2 -19 0 -25z m14 -56 c-6 -2 -11 -10
-11 -18 0 -9 5 -12 10 -9 6 3 10 3 10 -2 0 -4 3 -19 7 -32 4 -18 3 -22 -6 -17
-8 5 -14 0 -18 -13 -3 -12 -9 -21 -14 -21 -5 0 -9 -10 -9 -22 0 -12 3 -18 7
-15 9 9 43 -49 43 -73 0 -11 -4 -20 -10 -20 -5 0 -10 -9 -10 -20 0 -23 -18
-27 -26 -5 -9 22 -24 18 -24 -6 0 -11 5 -17 10 -14 10 6 12 -1 12 -43 0 -20 1
-21 5 -2 4 17 8 19 18 10 11 -9 12 -7 8 9 -3 10 -1 27 5 37 18 32 25 -22 8
-58 -9 -17 -16 -37 -16 -45 0 -20 -16 -16 -33 10 -14 19 -16 20 -16 4 -1 -10
5 -25 13 -32 14 -15 10 -65 -5 -65 -5 0 -9 -10 -9 -22 0 -12 3 -19 6 -15 3 3
17 -6 30 -21 21 -25 23 -25 18 -5 -4 12 -13 24 -21 27 -11 5 -13 14 -8 38 4
18 10 35 14 38 4 3 12 16 18 30 l11 25 7 -28 c5 -18 2 -35 -9 -52 -17 -26 -21
-50 -7 -41 10 6 21 -16 21 -41 0 -19 -50 -59 -69 -55 -10 3 -12 -3 -8 -18 3
-12 3 -19 -1 -16 -8 9 -8 617 1 623 4 2 7 14 7 25 0 20 1 21 20 3 19 -18 20
-17 21 6 2 20 3 19 6 -6 3 -16 0 -31 -6 -33z m-1051 -28 c0 -38 -3 -44 -20
-44 -28 0 -37 28 -14 45 18 13 18 14 2 15 -11 0 -18 8 -18 19 0 14 6 17 25 13
22 -4 25 -9 25 -48z m4 -112 c3 -21 6 -60 6 -88 0 -42 -4 -54 -22 -67 -23 -16
-23 -16 -2 -16 18 -1 22 -9 28 -53 10 -91 9 -94 -31 -111 l-38 -16 30 -2 c17
-1 33 -1 38 0 4 0 7 -20 7 -45 0 -45 0 -45 -22 -30 -12 9 -30 16 -40 16 -14 0
-18 8 -18 40 0 33 4 42 22 49 l23 8 -24 8 c-17 5 -21 12 -17 28 3 12 6 55 6
95 0 67 2 74 22 80 l22 5 -22 8 c-19 7 -22 16 -22 72 0 62 1 64 24 60 18 -4
25 -13 30 -41z m516 2 c0 -1 -5 -6 -12 -10 -7 -4 -8 -3 -4 4 5 8 0 12 -13 12
-12 0 -21 7 -21 15 0 14 3 13 25 -1 14 -9 25 -18 25 -20z m550 -2 c0 -24 -2
-25 -15 -11 -9 9 -13 23 -9 32 9 24 24 11 24 -21z m-632 -49 c-16 -2 -40 -2
-55 0 -16 2 -3 4 27 4 30 0 43 -2 28 -4z m210 0 c-16 -2 -40 -2 -55 0 -16 2
-3 4 27 4 30 0 43 -2 28 -4z m-363 -69 c21 -8 44 -13 51 -10 8 3 14 1 14 -5 0
-17 -31 -22 -70 -10 -38 11 -74 6 -65 -10 3 -4 -6 -16 -20 -25 -23 -15 -27
-15 -50 0 -34 22 -32 40 3 23 28 -15 56 -12 47 3 -6 10 29 50 44 50 5 0 25 -7
46 -16z m397 4 c19 -1 25 -5 21 -16 -6 -14 -45 -13 -98 3 -15 4 -23 0 -30 -17
-14 -33 -65 -36 -91 -7 -19 22 -19 22 1 14 42 -16 65 -18 65 -3 0 28 24 40 65
33 22 -3 52 -6 67 -7z m176 -31 c17 -1 30 -6 28 -12 -2 -5 -28 -9 -58 -8 -44
2 -59 -1 -73 -17 -24 -26 -57 -25 -81 2 -19 21 -19 21 1 13 40 -15 68 -18 61
-6 -15 23 15 43 53 36 20 -3 51 -7 69 -8z m-390 -40 c17 -1 32 -5 32 -9 0 -14
-35 -25 -55 -17 -36 14 -70 10 -83 -11 -7 -11 -23 -20 -35 -20 -27 0 -65 25
-54 36 4 4 13 2 19 -4 15 -15 55 -15 64 0 4 7 3 8 -4 4 -16 -10 -15 7 1 23 8
8 24 10 47 6 19 -3 50 -7 68 -8z m115 -62 c20 -8 43 -12 52 -9 11 5 14 2 9
-11 -7 -17 -16 -17 -96 1 -22 5 -28 3 -28 -10 0 -8 -11 -23 -25 -32 -23 -15
-27 -15 -50 0 -34 22 -32 37 4 23 15 -5 37 -7 47 -2 13 5 15 9 6 12 -10 4 -9
9 4 24 21 23 31 23 77 4z m231 -19 c49 -17 36 -26 -28 -19 -44 5 -47 7 -31 19
11 8 19 14 19 14 1 0 18 -6 40 -14z m-491 -28 c26 -1 27 -2 13 -16 -13 -14
-21 -14 -49 -4 -43 16 -44 16 -50 -9 -4 -16 -12 -20 -33 -17 -15 2 -29 8 -31
14 -2 6 9 9 29 7 18 -1 27 0 20 3 -10 5 -10 9 0 21 8 10 21 13 42 8 17 -4 44
-7 59 -7z m424 -2 c17 6 17 6 2 -11 -14 -14 -21 -15 -38 -6 -11 7 -21 16 -21
22 0 6 7 6 19 -1 11 -5 28 -7 38 -4z m-364 -62 c20 -4 37 -11 37 -16 0 -6 -18
-8 -46 -3 -30 4 -44 3 -40 -4 10 -15 -26 -31 -46 -20 -10 5 -18 14 -18 20 0 6
7 6 19 -1 23 -12 31 -13 30 -2 -5 33 1 36 64 26z m282 -4 c3 -5 15 -10 26 -10
11 0 17 -4 14 -10 -3 -5 -19 -7 -35 -4 -18 4 -37 0 -51 -9 -23 -17 -59 -8 -59
14 0 6 7 6 19 -1 26 -13 31 -13 31 4 0 22 43 35 55 16z m-595 -60 c8 -5 11
-10 5 -10 -5 0 -17 5 -25 10 -8 5 -10 10 -5 10 6 0 17 -5 25 -10z m-53 -59
l23 -34 0 30 c0 41 24 49 54 20 13 -13 47 -70 76 -126 36 -70 62 -109 82 -121
16 -10 29 -21 28 -25 -1 -4 4 -12 12 -16 10 -7 8 -9 -6 -9 -12 0 -16 5 -12 15
4 10 -1 15 -14 15 -11 0 -39 17 -62 38 -24 20 -37 29 -29 20 29 -38 -27 -10
-82 41 -16 14 -38 44 -49 66 -24 47 -66 95 -85 95 -17 0 -43 -53 -43 -88 0
-16 12 -50 26 -76 20 -37 23 -46 10 -46 -20 0 -44 35 -57 84 -14 51 10 120 49
141 37 20 53 15 79 -24z m937 17 c-16 -19 -16 -20 -1 -9 9 8 19 12 22 10 2 -2
5 -29 6 -59 4 -65 -12 -94 -74 -140 -43 -32 -63 -38 -51 -17 4 6 -4 2 -18 -10
-13 -13 -33 -23 -43 -23 -17 0 -17 1 2 23 12 12 40 60 63 107 41 82 83 140
103 140 6 0 2 -10 -9 -22z m169 3 c10 -7 17 -19 17 -25 -1 -6 -9 -1 -19 12
-30 35 -33 26 -6 -14 33 -48 33 -109 2 -155 -12 -19 -32 -35 -42 -37 -24 -5
-76 -52 -69 -63 6 -11 -17 -23 -46 -25 -14 -1 -40 -6 -57 -12 -27 -9 -33 -8
-33 4 0 19 62 45 72 30 5 -7 8 -5 8 4 0 16 52 53 64 45 3 -3 4 -2 1 2 -8 11
46 62 60 57 13 -5 45 52 45 81 0 32 -32 85 -50 85 -10 0 -31 -15 -45 -32 -31
-38 -23 -18 10 27 25 34 60 40 88 16z m-584 3 c17 -4 31 -11 31 -16 0 -6 -14
-8 -34 -4 -26 5 -35 3 -40 -9 -4 -11 -15 -15 -33 -13 -40 5 -41 26 -1 22 18
-1 27 0 21 3 -7 2 -13 9 -13 14 0 11 25 12 69 3z m-544 -89 c28 -36 26 -66 -3
-43 -26 21 22 -43 60 -79 18 -17 53 -43 78 -57 25 -14 39 -26 31 -26 -24 0
-115 51 -149 83 -47 46 -80 117 -53 117 5 0 7 9 4 20 -8 29 2 25 32 -15z
m1065 5 c-8 -16 -8 -18 5 -14 17 7 22 -21 5 -31 -5 -3 -10 -15 -10 -25 0 -22
-68 -83 -125 -112 -22 -12 -58 -22 -80 -23 -22 -1 -61 -6 -87 -9 -43 -7 -46
-6 -41 13 3 11 12 19 21 19 10 -1 39 2 66 6 42 7 48 6 43 -8 -4 -10 -1 -16 9
-16 11 0 12 4 5 18 -8 15 -4 23 19 40 32 24 46 27 55 13 3 -6 -11 -21 -32 -35
-21 -15 -34 -26 -30 -26 18 0 97 62 124 97 31 39 56 82 30 51 -33 -41 -38 -2
-5 42 23 31 45 31 28 0z m-973 -100 c30 -27 59 -50 64 -50 5 0 9 -7 9 -15 0
-20 -15 -19 -51 2 -22 13 -28 23 -23 38 4 16 3 17 -5 5 -8 -12 -15 -10 -40 14
-16 15 -27 35 -24 42 8 20 10 19 70 -36z m914 13 c-17 -33 -40 -48 -53 -35 -9
9 -5 19 17 42 31 32 55 27 36 -7z m-1015 -29 c26 -27 29 -39 15 -48 -8 -6 -51
52 -51 68 0 12 13 5 36 -20z m132 -89 c23 -10 49 -14 57 -11 9 3 13 2 10 -4
-4 -6 10 -10 34 -10 31 0 41 -4 41 -16 0 -12 -7 -14 -27 -10 -16 3 -48 8 -73
11 -67 10 -80 15 -81 33 0 11 -2 12 -6 4 -4 -9 -12 -8 -34 5 -28 17 -36 33
-23 46 4 4 19 -2 33 -13 15 -10 46 -26 69 -35z m142 -7 c0 -5 -12 -5 -27 -2
-56 14 -73 23 -67 38 5 13 12 12 50 -7 24 -11 44 -25 44 -29z m598 -33 c-2 -2
-36 -7 -76 -10 -60 -5 -72 -4 -72 8 0 12 15 15 66 16 37 0 69 3 73 6 3 4 7 1
9 -5 2 -6 2 -13 0 -15z m-540 -2 c2 -8 -6 -13 -22 -13 -17 0 -26 5 -26 16 0
19 41 16 48 -3z m327 -13 c3 -5 -3 -10 -14 -10 -11 0 -23 5 -26 10 -3 6 3 10
14 10 11 0 23 -4 26 -10z"/>
<path d="M2410 3239 c-12 -8 -10 -9 8 -4 29 8 52 -10 52 -43 0 -24 -1 -24 -18
-9 -25 23 -35 21 -22 -4 6 -11 8 -34 5 -50 -5 -24 -11 -30 -26 -26 -10 3 -17
1 -13 -4 7 -12 41 -11 49 1 3 6 11 10 18 10 6 0 0 -8 -13 -17 -14 -10 -28 -17
-32 -15 -5 1 -8 -11 -8 -27 0 -17 -5 -33 -10 -36 -16 -10 0 -27 21 -22 10 3
20 0 22 -6 2 -6 13 6 26 26 12 20 25 37 28 37 3 0 21 -17 39 -37 18 -21 33
-32 34 -25 0 6 6 12 14 12 7 0 19 6 25 14 9 11 8 17 -4 29 -8 9 -15 20 -15 26
0 6 -6 11 -12 11 -7 0 -2 6 12 13 14 7 26 21 27 32 3 17 1 16 -7 -2 -5 -13
-17 -23 -27 -22 -10 0 -13 3 -7 5 16 7 5 64 -12 57 -9 -3 -14 1 -14 12 0 9 -4
13 -10 10 -16 -10 -12 31 5 45 8 6 24 9 37 5 18 -5 20 -4 8 4 -21 15 -33 14
-56 -6 -27 -25 -48 -26 -69 -3 -20 22 -33 25 -55 9z"/>
<path d="M2371 3164 c0 -11 3 -14 6 -6 3 7 2 16 -1 19 -3 4 -6 -2 -5 -13z"/>
<path d="M2621 3164 c0 -11 3 -14 6 -6 3 7 2 16 -1 19 -3 4 -6 -2 -5 -13z"/>
<path d="M2305 3150 c-4 -6 -10 -8 -15 -5 -13 8 -23 -39 -15 -64 5 -17 2 -19
-15 -16 -12 2 -28 9 -36 16 -11 9 -14 7 -14 -15 0 -14 -4 -26 -10 -26 -16 0
-12 -27 5 -34 8 -3 15 -12 15 -21 0 -25 19 -17 39 18 21 34 23 37 57 65 18 14
21 25 17 55 -5 36 -16 47 -28 27z"/>
<path d="M2681 3132 c2 -15 0 -33 -5 -40 -5 -8 3 -18 23 -30 20 -11 29 -22 25
-32 -3 -8 -2 -12 1 -8 4 4 20 -8 36 -25 16 -18 29 -26 29 -18 0 8 8 19 17 26
15 11 16 16 4 38 -7 14 -10 30 -6 37 6 9 2 9 -13 1 -27 -15 -37 -14 -24 2 5 7
6 21 2 32 -7 17 -9 16 -15 -13 -11 -49 -20 -46 -16 5 3 39 1 45 -13 40 -8 -3
-18 -2 -21 3 -12 20 -26 9 -24 -18z"/>
<path d="M2237 3110 c-3 -10 1 -24 9 -31 11 -9 14 -6 14 20 0 34 -15 42 -23
11z"/>
<path d="M2290 3020 c8 -5 20 -10 25 -10 6 0 3 5 -5 10 -8 5 -19 10 -25 10 -5
0 -3 -5 5 -10z"/>
<path d="M2690 3009 c0 -5 5 -7 10 -4 6 3 10 8 10 11 0 2 -4 4 -10 4 -5 0 -10
-5 -10 -11z"/>
<path d="M3021 2604 c0 -11 3 -14 6 -6 3 7 2 16 -1 19 -3 4 -6 -2 -5 -13z"/>
<path d="M3000 2583 c0 -15 25 -63 33 -63 4 0 7 7 7 15 0 8 -4 15 -10 15 -5 0
-10 6 -10 14 0 8 -4 18 -10 21 -5 3 -10 2 -10 -2z"/>
<path d="M3000 2495 c0 -8 5 -15 10 -15 6 0 10 7 10 15 0 8 -4 15 -10 15 -5 0
-10 -7 -10 -15z"/>
<path d="M3000 2415 c0 -8 5 -15 10 -15 6 0 10 -12 11 -27 0 -16 3 -22 6 -15
2 6 9 10 14 6 5 -3 9 6 9 20 0 18 -4 24 -15 20 -9 -4 -15 0 -15 10 0 9 -4 16
-10 16 -5 0 -10 -7 -10 -15z"/>
<path d="M3021 2044 c0 -11 3 -14 6 -6 3 7 2 16 -1 19 -3 4 -6 -2 -5 -13z"/>
<path d="M2070 1980 c6 -11 13 -20 16 -20 2 0 0 9 -6 20 -6 11 -13 20 -16 20
-2 0 0 -9 6 -20z"/>
<path d="M2130 1844 c0 -6 7 -19 16 -30 14 -18 14 -18 3 6 -14 31 -19 36 -19
24z"/>
<path d="M2975 1700 c-3 -6 1 -7 9 -4 18 7 21 14 7 14 -6 0 -13 -4 -16 -10z"/>
<path d="M2531 3593 c-1 -6 3 -23 9 -37 8 -21 16 -26 45 -26 19 0 35 -3 35 -7
0 -3 -11 -21 -25 -39 -14 -18 -25 -36 -25 -40 0 -4 16 14 35 39 19 25 35 48
35 51 0 3 -10 6 -22 6 -44 0 -67 12 -77 39 -5 14 -10 21 -10 14z"/>
<path d="M2416 3541 l-39 -6 27 -32 c14 -17 33 -44 41 -60 8 -15 15 -22 15
-14 0 8 -11 29 -25 47 -32 42 -32 54 4 54 17 0 33 5 36 10 7 11 3 11 -59 1z"/>
<path d="M2572 3405 c0 -16 2 -22 5 -12 2 9 2 23 0 30 -3 6 -5 -1 -5 -18z"/>
<path d="M2442 3375 c0 -16 2 -22 5 -12 2 9 2 23 0 30 -3 6 -5 -1 -5 -18z"/>
<path d="M2475 3358 c-22 -16 -42 -34 -44 -40 -5 -15 30 6 53 31 25 27 29 27
71 -10 l35 -31 0 28 c0 22 -3 25 -10 14 -8 -12 -13 -11 -37 11 l-28 27 -40
-30z"/>
<path d="M2250 1880 c0 -11 5 -20 10 -20 6 0 10 5 10 10 0 14 33 13 48 -2 7
-7 12 -8 12 -2 0 18 -24 34 -52 34 -21 0 -28 -5 -28 -20z"/>
<path d="M2707 1882 c-22 -24 -22 -39 -1 -18 22 22 43 20 54 -6 8 -21 9 -20 9
10 1 27 -3 32 -22 32 -13 0 -31 -8 -40 -18z"/>
<path d="M1841 1874 c0 -11 3 -14 6 -6 3 7 2 16 -1 19 -3 4 -6 -2 -5 -13z"/>
<path d="M3182 1830 c0 -14 2 -19 5 -12 2 6 2 18 0 25 -3 6 -5 1 -5 -13z"/>
<path d="M1841 1784 c0 -11 3 -14 6 -6 3 7 2 16 -1 19 -3 4 -6 -2 -5 -13z"/>
<path d="M2370 1703 c0 -15 2 -16 10 -3 8 12 13 13 30 3 27 -18 39 -16 16 2
-27 20 -56 19 -56 -2z"/>
<path d="M3139 1703 c-8 -9 -27 -24 -44 -35 -16 -10 -24 -18 -17 -18 12 0 93
69 81 70 -4 0 -13 -7 -20 -17z"/>
<path d="M1902 1678 c16 -16 36 -28 46 -27 12 0 9 3 -8 10 -14 6 -34 18 -45
27 -12 9 -8 5 7 -10z"/>
<path d="M2550 1656 c0 -2 8 -10 18 -17 15 -13 16 -12 3 4 -13 16 -21 21 -21
13z"/>
<path d="M2580 1616 c0 -2 8 -10 18 -17 15 -13 16 -12 3 4 -13 16 -21 21 -21
13z"/>
<path d="M2204 1535 c-7 -28 0 -55 15 -55 5 0 23 12 38 26 l28 25 -27 -16
c-33 -20 -52 -11 -44 21 4 13 4 24 1 24 -2 0 -7 -11 -11 -25z"/>
<path d="M2811 1527 c-1 -25 -4 -27 -28 -22 -27 6 -27 6 -9 -9 25 -20 30 -20
46 -1 10 12 10 21 2 38 -10 21 -11 21 -11 -6z"/>
</g>
</svg>
